<?xml version="1.0" encoding="UTF-8"?>
<svg width="150px" height="178px" viewBox="0 0 150 178" version="1.1" xmlns="http://www.w3.org/2000/svg" xmlns:xlink="http://www.w3.org/1999/xlink">
    <!-- Generator: Sketch 51.1 (57501) - http://www.bohemiancoding.com/sketch -->
    <title>Group</title>
    <desc>Created with Sketch.</desc>
    <defs>
        <polygon id="path-1" points="0.32355971 0 149.801763 0 149.801763 177.695676 0.32355971 177.695676"></polygon>
    </defs>
    <g id="Colours-&amp;-Icons" stroke="none" stroke-width="1" fill="none" fill-rule="evenodd">
        <g id="Artboard" transform="translate(-101.000000, -63.000000)">
            <g id="Group" transform="translate(101.000000, 63.000000)">
                <path d="M53.0945415,118.645491 L53.0945415,127.410159 C53.0945415,131.250304 56.2101576,134.374139 60.0392407,134.374139 L83.6038539,134.374139 C84.6177507,134.374139 85.6118768,134.654285 86.4766332,135.183544 L94.8246275,140.285636 L94.8246275,99.5417375 C94.8246275,95.7015923 91.7094413,92.5777569 87.8799284,92.5777569 L60.0392407,92.5777569 C56.2101576,92.5777569 53.0945415,95.7015923 53.0945415,99.5417375 L53.0945415,118.645491 Z M100.345401,155.679403 C99.3491261,155.679403 98.3532808,155.409171 97.472192,154.869999 L82.0544269,145.445912 L60.0392407,145.445912 C50.1216189,145.445912 42.0534241,137.354885 42.0534241,127.410159 L42.0534241,99.5417375 C42.0534241,89.5970111 50.1216189,81.5059845 60.0392407,81.5059845 L87.8799284,81.5059845 C97.7975501,81.5059845 105.866175,89.5970111 105.866175,99.5417375 L105.866175,150.143302 C105.866175,152.144401 104.788668,153.990343 103.04884,154.969558 C102.207722,155.443219 101.276777,155.679403 100.345401,155.679403 Z" id="Fill-51" fill="#FFFFFF"></path>
                <path d="M129.377837,92.6596455 C132.466805,92.6596455 134.980702,90.140062 134.980702,87.0429482 C134.980702,83.9454034 132.466805,81.4240959 129.377837,81.4240959 C126.288868,81.4240959 123.774971,83.9454034 123.774971,87.0429482 C123.774971,90.140062 126.288868,92.6596455 129.377837,92.6596455" id="Fill-53" fill="#FFFFFF"></path>
                <g id="Group-57">
                    <mask id="mask-2" fill="white">
                        <use xlink:href="#path-1"></use>
                    </mask>
                    <g id="Clip-56"></g>
                    <path d="M30.8167049,177.695676 C20.8539542,177.43708 13.04149,169.446044 13.04149,159.659923 L13.04149,70.5797584 C13.04149,60.635032 21.1096848,52.5440053 31.0273066,52.5440053 L137.344642,52.5440053 C137.979026,52.5440053 138.541203,52.1168915 138.712693,51.5048818 C138.883754,50.8933031 138.625874,50.2347462 138.084756,49.9037438 L75.5295989,11.6669303 C74.2462178,10.8833855 72.6508023,10.8829545 71.3674212,11.6656373 L8.71469914,49.9076228 C6.11054441,51.496693 2.71340974,50.6687559 1.12916905,48.0573709 C-0.455931232,45.445986 0.370143266,42.0407123 2.97429799,40.4512111 L65.6265903,2.20836368 C70.4532378,-0.737902663 76.44851,-0.736178692 81.2751576,2.21353559 L143.830745,40.4507801 C148.579169,43.3522232 150.844642,49.1288189 149.341203,54.4976954 C147.839054,59.8661409 142.905387,63.6157777 137.344642,63.6157777 L31.0273066,63.6157777 C27.1977937,63.6157777 24.0826074,66.7400441 24.0826074,70.5797584 L24.0826074,159.659923 C24.0826074,163.499637 27.1977937,166.624335 31.0273066,166.624335 L116.912407,166.624335 C120.74149,166.624335 123.856676,163.499637 123.856676,159.659923 L123.856676,113.809623 C123.856676,110.75216 126.328883,108.273521 129.37745,108.273521 C132.426017,108.273521 134.898223,110.75216 134.898223,113.809623 L134.898223,159.872402 C134.637765,169.863245 126.670573,177.695676 116.912407,177.695676 L30.8167049,177.695676 Z" id="Fill-55" fill="#FFFFFF" mask="url(#mask-2)"></path>
                </g>
            </g>
        </g>
    </g>
</svg>