<?xml version="1.0" encoding="UTF-8"?>
<svg width="309px" height="366px" viewBox="0 0 309 366" version="1.1" xmlns="http://www.w3.org/2000/svg" xmlns:xlink="http://www.w3.org/1999/xlink">
    <!-- Generator: Sketch 51 (57462) - http://www.bohemiancoding.com/sketch -->
    <title>Group</title>
    <desc>Created with Sketch.</desc>
    <defs>
        <polygon id="path-1" points="0.667144085 0 308.874551 0 308.874551 365.374255 0.667144085 365.374255"></polygon>
    </defs>
    <g id="Colours-&amp;-Icons" stroke="none" stroke-width="1" fill="none" fill-rule="evenodd">
        <g id="Artboard" transform="translate(-101.000000, -63.000000)">
            <g id="Group" transform="translate(101.000000, 63.000000)">
                <path d="M109.475031,243.956458 L109.475031,261.978192 C109.475031,269.874221 115.899084,276.297388 123.794227,276.297388 L172.381835,276.297388 C174.472377,276.297388 176.522154,276.873417 178.305186,277.961669 L195.51782,288.452487 L195.51782,204.675708 C195.51782,196.779678 189.094653,190.356511 181.198624,190.356511 L123.794227,190.356511 C115.899084,190.356511 109.475031,196.779678 109.475031,204.675708 L109.475031,243.956458 Z M206.901041,320.104841 C204.846832,320.104841 202.79351,319.549194 200.976803,318.44056 L169.187089,299.062942 L123.794227,299.062942 C103.345196,299.062942 86.7094765,282.426337 86.7094765,261.978192 L86.7094765,204.675708 C86.7094765,184.227562 103.345196,167.590957 123.794227,167.590957 L181.198624,167.590957 C201.647656,167.590957 218.284261,184.227562 218.284261,204.675708 L218.284261,308.72162 C218.284261,312.83624 216.062561,316.631829 212.47523,318.645272 C210.740939,319.619204 208.821433,320.104841 206.901041,320.104841 Z" id="Fill-51" fill="#FFFFFF"></path>
                <path d="M266.762689,190.524889 C273.131798,190.524889 278.315173,185.344172 278.315173,178.97595 C278.315173,172.606841 273.131798,167.422579 266.762689,167.422579 C260.39358,167.422579 255.210205,172.606841 255.210205,178.97595 C255.210205,185.344172 260.39358,190.524889 266.762689,190.524889" id="Fill-53" fill="#FFFFFF"></path>
                <g id="Group-57">
                    <mask id="mask-2" fill="white">
                        <use xlink:href="#path-1"></use>
                    </mask>
                    <g id="Clip-56"></g>
                    <path d="M63.5406131,365.374255 C42.9985308,364.842536 26.8900998,348.411529 26.8900998,328.289505 L26.8900998,145.124672 C26.8900998,124.676526 43.5258189,108.039921 63.9748504,108.039921 L283.189354,108.039921 C284.497383,108.039921 285.656531,107.161698 286.010124,105.903296 C286.362831,104.645781 285.831112,103.291669 284.715388,102.611069 L155.73362,23.9893061 C153.087431,22.3781971 149.797862,22.3773109 147.151674,23.9866475 L17.968739,102.619045 C12.599262,105.886459 5.59474867,104.184071 2.32822082,98.8145942 C-0.940079419,93.4451172 0.763194189,86.4432625 6.13267119,83.1749622 L135.31472,4.54079274 C145.266729,-1.51726053 157.628313,-1.51371574 167.580323,4.55142712 L296.562976,83.174076 C306.353698,89.1399646 311.02485,101.017684 307.924928,112.057059 C304.827664,123.095548 294.654991,130.805476 283.189354,130.805476 L63.9748504,130.805476 C56.0788213,130.805476 49.6556542,137.229529 49.6556542,145.124672 L49.6556542,328.289505 C49.6556542,336.184647 56.0788213,342.609587 63.9748504,342.609587 L241.060361,342.609587 C248.955504,342.609587 255.378671,336.184647 255.378671,328.289505 L255.378671,234.013045 C255.378671,227.726352 260.476085,222.629824 266.761892,222.629824 C273.047698,222.629824 278.145112,227.726352 278.145112,234.013045 L278.145112,328.7264 C277.608076,349.269369 261.180613,365.374255 241.060361,365.374255 L63.5406131,365.374255 Z" id="Fill-55" fill="#FFFFFF" mask="url(#mask-2)"></path>
                </g>
            </g>
        </g>
    </g>
</svg>